<?xml version="1.0"?>
<svg version="1.1" xmlns="http://www.w3.org/2000/svg" width="450" height="150" style=""><path fill="#ffffff" d="M42.05419921875,116.373046875l-11.859375-38.64404296875l-0.30322265625,0q0.64013671875,11.7919921875,0.64013671875,15.73388671875l0,22.91015625l-9.33251953125,0l0-49.2568359375l14.2177734375,0l11.6572265625,37.6669921875l0.2021484375,0l12.36474609375-37.6669921875l14.2177734375,0l0,49.2568359375l-9.73681640625,0l0-23.314453125q0-1.65087890625,0.050537109375-3.80712890625t0.454833984375-11.455078125l-0.30322265625,0l-12.70166015625,38.57666015625l-9.568359375,0z M105.79059082031,85.3095703125q-3.26806640625,0-5.12109375,2.072021484375t-2.12255859375,5.879150390625l14.419921875,0q-0.0673828125-3.80712890625-1.98779296875-5.879150390625t-5.1884765625-2.072021484375z M107.23932128906,117.046875q-9.0966796875,0-14.2177734375-5.02001953125t-5.12109375-14.2177734375q0-9.46728515625,4.733642578125-14.638916015625t13.089111328125-5.171630859375q7.98486328125,0,12.43212890625,4.54833984375t4.447265625,12.56689453125l0,4.986328125l-24.29150390625,0q0.16845703125,4.3798828125,2.59423828125,6.83935546875t6.8056640625,2.45947265625q3.40283203125,0,6.43505859375-0.70751953125t6.333984375-2.25732421875l0,7.951171875q-2.6953125,1.34765625-5.76123046875,2.004638671875t-7.4794921875,0.656982421875z M147.62756835938,117.046875q-6.63720703125,0-10.427490234375-5.15478515625t-3.790283203125-14.28515625q0-9.26513671875,3.857666015625-14.436767578125t10.629638671875-5.171630859375q7.10888671875,0,10.8486328125,5.525390625l0.3369140625,0q-0.77490234375-4.21142578125-0.77490234375-7.51318359375l0-12.0615234375l10.3095703125,0l0,52.423828125l-7.8837890625,0l-1.98779296875-4.88525390625l-0.43798828125,0q-3.50390625,5.55908203125-10.68017578125,5.55908203125z M151.23254882813,108.85986328125q3.94189453125,0,5.778076171875-2.291015625t2.004638671875-7.78271484375l0-1.11181640625q0-6.064453125-1.869873046875-8.6923828125t-6.081298828125-2.6279296875q-3.4365234375,0-5.340087890625,2.914306640625t-1.903564453125,8.473388671875t1.92041015625,8.338623046875t5.49169921875,2.779541015625z M183.66962402344,68.96923828125q0-5.02001953125,5.5927734375-5.02001953125t5.5927734375,5.02001953125q0,2.39208984375-1.398193359375,3.722900390625t-4.194580078125,1.330810546875q-5.5927734375,0-5.5927734375-5.0537109375z M194.38349121094,116.373046875l-10.27587890625,0l0-37.6669921875l10.27587890625,0l0,37.6669921875z M233.82837890625,116.373046875l-1.98779296875-5.12109375l-0.26953125,0q-2.59423828125,3.26806640625-5.340087890625,4.531494140625t-7.159423828125,1.263427734375q-5.42431640625,0-8.540771484375-3.099609375t-3.116455078125-8.8271484375q0-5.9970703125,4.194580078125-8.843994140625t12.651123046875-3.150146484375l6.5361328125-0.2021484375l0-1.65087890625q0-5.7275390625-5.8623046875-5.7275390625q-4.5146484375,0-10.61279296875,2.72900390625l-3.40283203125-6.9404296875q6.50244140625-3.40283203125,14.419921875-3.40283203125q7.58056640625,0,11.62353515625,3.3017578125t4.04296875,10.0400390625l0,25.10009765625l-7.17626953125,0z M230.79615234375,98.9208984375l-3.9755859375,0.134765625q-4.48095703125,0.134765625-6.6708984375,1.6171875t-2.18994140625,4.5146484375q0,4.34619140625,4.986328125,4.34619140625q3.5712890625,0,5.710693359375-2.05517578125t2.139404296875-5.4580078125l0-3.099609375z"/><path fill="#ffffff" d="M280.83381347656,88.71240234375l19.541015625,0l0,25.5380859375q-4.75048828125,1.5498046875-8.945068359375,2.173095703125t-8.574462890625,0.623291015625q-11.15185546875,0-17.031005859375-6.552978515625t-5.879150390625-18.816650390625q0-11.9267578125,6.822509765625-18.59765625t18.917724609375-6.6708984375q7.58056640625,0,14.6220703125,3.0322265625l-3.47021484375,8.35546875q-5.390625-2.6953125-11.21923828125-2.6953125q-6.77197265625,0-10.8486328125,4.54833984375t-4.07666015625,12.22998046875q0,8.0185546875,3.284912109375,12.246826171875t9.551513671875,4.228271484375q3.26806640625,0,6.63720703125-0.673828125l0-10.27587890625l-9.33251953125,0l0-8.6923828125z M342.71717773438,116.373046875l-1.38134765625-4.81787109375l-0.5390625,0q-1.65087890625,2.6279296875-4.68310546875,4.059814453125t-6.90673828125,1.431884765625q-6.63720703125,0-10.00634765625-3.554443359375t-3.369140625-10.225341796875l0-24.56103515625l10.27587890625,0l0,22.00048828125q0,4.07666015625,1.44873046875,6.114990234375t4.61572265625,2.038330078125q4.3125,0,6.23291015625-2.880615234375t1.92041015625-9.551513671875l0-17.7216796875l10.27587890625,0l0,37.6669921875l-7.8837890625,0z M392.40425292969,105.1875q0,5.794921875-4.026123046875,8.8271484375t-12.044677734375,3.0322265625q-4.1103515625,0-7.0078125-0.555908203125t-5.42431640625-1.634033203125l0-8.490234375q2.86376953125,1.34765625,6.451904296875,2.25732421875t6.317138671875,0.90966796875q5.5927734375,0,5.5927734375-3.234375q0-1.212890625-0.7412109375-1.970947265625t-2.560546875-1.71826171875t-4.8515625-2.240478515625q-4.34619140625-1.8193359375-6.384521484375-3.369140625t-2.96484375-3.554443359375t-0.926513671875-4.935791015625q0-5.02001953125,3.891357421875-7.765869140625t11.033935546875-2.745849609375q6.8056640625,0,13.24072265625,2.96484375l-3.099609375,7.412109375q-2.830078125-1.212890625-5.28955078125-1.98779296875t-5.02001953125-0.77490234375q-4.54833984375,0-4.54833984375,2.45947265625q0,1.38134765625,1.465576171875,2.39208984375t6.418212890625,2.99853515625q4.41357421875,1.78564453125,6.46875,3.33544921875t3.0322265625,3.5712890625t0.97705078125,4.81787109375z M421.03419921875,108.85986328125q2.6953125,0,6.46875-1.17919921875l0,7.64794921875q-3.8408203125,1.71826171875-9.43359375,1.71826171875q-6.16552734375,0-8.978759765625-3.116455078125t-2.813232421875-9.349365234375l0-18.15966796875l-4.9189453125,0l0-4.34619140625l5.66015625-3.4365234375l2.96484375-7.951171875l6.56982421875,0l0,8.0185546875l10.54541015625,0l0,7.71533203125l-10.54541015625,0l0,18.15966796875q0,2.18994140625,1.229736328125,3.234375t3.251220703125,1.04443359375z"/></svg>
