<?xml version="1.0"?>
<svg version="1.1" xmlns="http://www.w3.org/2000/svg" width="155" height="125" style=""><path fill="#ff053f" d="M54.208984375,122.4609375l-17.1875-56.005859375l-0.439453125,0q0.927734375,17.08984375,0.927734375,22.802734375l0,33.203125l-13.525390625,0l0-71.38671875l20.60546875,0l16.89453125,54.58984375l0.29296875,0l17.919921875-54.58984375l20.60546875,0l0,71.38671875l-14.111328125,0l0-33.7890625q0-2.392578125,0.0732421875-5.517578125t0.6591796875-16.6015625l-0.439453125,0l-18.408203125,55.908203125l-13.8671875,0z"/><path fill="#e9204f" d="M126.87353515625,115.478515625q0-4.1015625,2.197265625-6.201171875t6.396484375-2.099609375q4.052734375,0,6.2744140625,2.1484375t2.2216796875,6.15234375q0,3.857421875-2.24609375,6.0791015625t-6.25,2.2216796875q-4.1015625,0-6.34765625-2.1728515625t-2.24609375-6.1279296875z"/></svg>
